<?xml version="1.0" standalone="no"?>
<!DOCTYPE svg PUBLIC "-//W3C//DTD SVG 20010904//EN"
 "http://www.w3.org/TR/2001/REC-SVG-20010904/DTD/svg10.dtd">
<svg version="1.0" xmlns="http://www.w3.org/2000/svg"
 width="1123.000000pt" height="1123.000000pt" viewBox="0 0 1123.000000 1123.000000"
 preserveAspectRatio="xMidYMid meet">
<metadata>
Created by potrace 1.11, written by Peter Selinger 2001-2013
</metadata>
<g transform="translate(0.000000,1123.000000) scale(0.100000,-0.100000)"
fill="#000000" stroke="none">
<path d="M1640 5550 l0 -4050 3970 0 3970 0 0 4050 0 4050 -3970 0 -3970 0 0
-4050z m3712 2224 c297 -38 583 -143 826 -303 l92 -61 0 -280 c0 -154 -3 -280
-6 -280 -4 0 -36 26 -73 58 -312 275 -604 404 -972 432 -329 24 -627 -44 -856
-196 -261 -174 -446 -476 -527 -861 -80 -384 -70 -910 24 -1253 107 -387 303
-654 594 -811 308 -166 765 -193 1140 -67 192 64 404 189 573 337 51 45 95 81
98 81 3 0 5 -125 5 -278 l0 -278 -83 -55 c-46 -31 -134 -81 -195 -113 -300
-153 -570 -216 -927 -216 -333 0 -601 57 -848 181 -436 219 -746 624 -882
1155 -66 256 -79 379 -80 739 0 257 4 343 18 440 95 635 362 1096 797 1378
220 142 459 222 775 260 89 11 395 5 507 -9z m2183 -1028 c214 -58 358 -195
395 -373 17 -79 8 -205 -19 -276 -42 -107 -156 -204 -296 -252 -15 -5 -6 -11
42 -26 202 -63 327 -243 327 -469 0 -111 -15 -181 -55 -267 -144 -306 -610
-416 -1121 -266 l-88 26 0 127 0 126 58 -27 c242 -115 573 -130 763 -33 121
61 181 166 182 314 0 107 -26 181 -88 244 -91 94 -199 126 -432 126 l-153 0 0
110 0 110 163 0 c220 0 300 20 382 92 53 46 77 101 83 184 19 296 -275 407
-747 282 -64 -17 -126 -33 -139 -35 l-23 -5 3 113 3 114 40 13 c39 13 247 56
315 65 77 11 345 -1 405 -17z"/>
</g>
</svg>
